<mxfile host="app.diagrams.net" modified="2024-06-13T12:45:19.295Z" agent="Mozilla/5.0 (Windows NT 10.0; Win64; x64) AppleWebKit/537.36 (KHTML, like Gecko) Chrome/125.0.0.0 Safari/537.36" etag="Qp4WXCCZ-PED9C2cTSbv" version="24.5.4" type="github">
  <diagram name="Page-1" id="e7e014a7-5840-1c2e-5031-d8a46d1fe8dd">
    <mxGraphModel dx="1050" dy="530" grid="1" gridSize="10" guides="1" tooltips="1" connect="1" arrows="1" fold="1" page="1" pageScale="1" pageWidth="1169" pageHeight="826" background="none" math="0" shadow="0">
      <root>
        <mxCell id="0" />
        <mxCell id="1" parent="0" />
        <mxCell id="7poOKJEEPHAl35N9_9CA-41" value="" style="rounded=0;whiteSpace=wrap;html=1;fillColor=#b0e3e6;strokeColor=#0e8088;" parent="1" vertex="1">
          <mxGeometry x="140" y="130" width="720" height="260" as="geometry" />
        </mxCell>
        <mxCell id="7poOKJEEPHAl35N9_9CA-42" value="" style="rounded=0;whiteSpace=wrap;html=1;fillColor=#fad7ac;strokeColor=#b46504;" parent="1" vertex="1">
          <mxGeometry x="140" y="391" width="720" height="100" as="geometry" />
        </mxCell>
        <mxCell id="7poOKJEEPHAl35N9_9CA-43" value="" style="rounded=0;whiteSpace=wrap;html=1;fillColor=#b1ddf0;strokeColor=#10739e;" parent="1" vertex="1">
          <mxGeometry x="140" y="591" width="720" height="100" as="geometry" />
        </mxCell>
        <mxCell id="7poOKJEEPHAl35N9_9CA-44" value="" style="rounded=0;whiteSpace=wrap;html=1;fillColor=#d0cee2;strokeColor=#56517e;" parent="1" vertex="1">
          <mxGeometry x="140" y="691" width="720" height="100" as="geometry" />
        </mxCell>
        <mxCell id="7poOKJEEPHAl35N9_9CA-45" value="" style="rounded=0;whiteSpace=wrap;html=1;fillColor=#fad9d5;strokeColor=#ae4132;" parent="1" vertex="1">
          <mxGeometry x="140" y="491" width="720" height="100" as="geometry" />
        </mxCell>
        <mxCell id="7poOKJEEPHAl35N9_9CA-46" value="elasticsearch" style="rounded=0;whiteSpace=wrap;html=1;" parent="1" vertex="1">
          <mxGeometry x="160" y="511" width="120" height="60" as="geometry" />
        </mxCell>
        <mxCell id="7poOKJEEPHAl35N9_9CA-47" value="kafka" style="rounded=0;whiteSpace=wrap;html=1;" parent="1" vertex="1">
          <mxGeometry x="300" y="511" width="120" height="60" as="geometry" />
        </mxCell>
        <mxCell id="7poOKJEEPHAl35N9_9CA-48" value="PG" style="rounded=0;whiteSpace=wrap;html=1;" parent="1" vertex="1">
          <mxGeometry x="440" y="511" width="120" height="60" as="geometry" />
        </mxCell>
        <mxCell id="7poOKJEEPHAl35N9_9CA-49" value="doris" style="rounded=0;whiteSpace=wrap;html=1;" parent="1" vertex="1">
          <mxGeometry x="580" y="511" width="120" height="60" as="geometry" />
        </mxCell>
        <mxCell id="7poOKJEEPHAl35N9_9CA-50" value="Node" style="rounded=0;whiteSpace=wrap;html=1;" parent="1" vertex="1">
          <mxGeometry x="160" y="711" width="120" height="60" as="geometry" />
        </mxCell>
        <mxCell id="7poOKJEEPHAl35N9_9CA-51" value="Go" style="rounded=0;whiteSpace=wrap;html=1;" parent="1" vertex="1">
          <mxGeometry x="300" y="711" width="120" height="60" as="geometry" />
        </mxCell>
        <mxCell id="7poOKJEEPHAl35N9_9CA-52" value="Jenkins" style="rounded=0;whiteSpace=wrap;html=1;" parent="1" vertex="1">
          <mxGeometry x="160" y="616" width="120" height="60" as="geometry" />
        </mxCell>
        <mxCell id="7poOKJEEPHAl35N9_9CA-53" value="Docker" style="rounded=0;whiteSpace=wrap;html=1;" parent="1" vertex="1">
          <mxGeometry x="300" y="616" width="120" height="60" as="geometry" />
        </mxCell>
        <mxCell id="7poOKJEEPHAl35N9_9CA-54" value="语言" style="text;html=1;strokeColor=none;fillColor=none;align=center;verticalAlign=middle;whiteSpace=wrap;rounded=0;" parent="1" vertex="1">
          <mxGeometry x="60" y="721" width="60" height="30" as="geometry" />
        </mxCell>
        <mxCell id="7poOKJEEPHAl35N9_9CA-55" value="运维" style="text;html=1;strokeColor=none;fillColor=none;align=center;verticalAlign=middle;whiteSpace=wrap;rounded=0;" parent="1" vertex="1">
          <mxGeometry x="60" y="636" width="60" height="30" as="geometry" />
        </mxCell>
        <mxCell id="7poOKJEEPHAl35N9_9CA-56" value="存储" style="text;html=1;strokeColor=none;fillColor=none;align=center;verticalAlign=middle;whiteSpace=wrap;rounded=0;" parent="1" vertex="1">
          <mxGeometry x="60" y="526" width="60" height="30" as="geometry" />
        </mxCell>
        <mxCell id="7poOKJEEPHAl35N9_9CA-57" value="计算" style="text;html=1;strokeColor=none;fillColor=none;align=center;verticalAlign=middle;whiteSpace=wrap;rounded=0;" parent="1" vertex="1">
          <mxGeometry x="60" y="426" width="60" height="30" as="geometry" />
        </mxCell>
        <mxCell id="7poOKJEEPHAl35N9_9CA-58" value="Nginx" style="rounded=0;whiteSpace=wrap;html=1;" parent="1" vertex="1">
          <mxGeometry x="160" y="411" width="120" height="60" as="geometry" />
        </mxCell>
        <mxCell id="7poOKJEEPHAl35N9_9CA-59" value="&lt;span style=&quot;text-align: left; background-color: rgb(247, 247, 247);&quot;&gt;&lt;font style=&quot;font-size: 12px;&quot;&gt;Kong&lt;/font&gt;&lt;/span&gt;" style="rounded=0;whiteSpace=wrap;html=1;" parent="1" vertex="1">
          <mxGeometry x="300" y="411" width="120" height="60" as="geometry" />
        </mxCell>
        <mxCell id="7poOKJEEPHAl35N9_9CA-60" value="ceph" style="rounded=0;whiteSpace=wrap;html=1;" parent="1" vertex="1">
          <mxGeometry x="720" y="511" width="120" height="60" as="geometry" />
        </mxCell>
        <mxCell id="7poOKJEEPHAl35N9_9CA-61" value="argo" style="rounded=0;whiteSpace=wrap;html=1;" parent="1" vertex="1">
          <mxGeometry x="440" y="411" width="120" height="60" as="geometry" />
        </mxCell>
        <mxCell id="7poOKJEEPHAl35N9_9CA-62" value="k8s" style="rounded=0;whiteSpace=wrap;html=1;" parent="1" vertex="1">
          <mxGeometry x="580" y="411" width="120" height="60" as="geometry" />
        </mxCell>
        <mxCell id="7poOKJEEPHAl35N9_9CA-63" value="崩溃趋势" style="rounded=0;whiteSpace=wrap;html=1;fillColor=#fff2cc;strokeColor=#d6b656;" parent="1" vertex="1">
          <mxGeometry x="160" y="150" width="120" height="60" as="geometry" />
        </mxCell>
        <mxCell id="7poOKJEEPHAl35N9_9CA-64" value="崩溃记录" style="rounded=0;whiteSpace=wrap;html=1;fillColor=#fff2cc;strokeColor=#d6b656;" parent="1" vertex="1">
          <mxGeometry x="300" y="150" width="120" height="60" as="geometry" />
        </mxCell>
        <mxCell id="7poOKJEEPHAl35N9_9CA-65" value="崩溃版本分布" style="rounded=0;whiteSpace=wrap;html=1;fillColor=#fff2cc;strokeColor=#d6b656;" parent="1" vertex="1">
          <mxGeometry x="440" y="150" width="120" height="60" as="geometry" />
        </mxCell>
        <mxCell id="7poOKJEEPHAl35N9_9CA-66" value="崩溃报告" style="rounded=0;whiteSpace=wrap;html=1;fillColor=#fff2cc;strokeColor=#d6b656;" parent="1" vertex="1">
          <mxGeometry x="580" y="150" width="120" height="60" as="geometry" />
        </mxCell>
        <mxCell id="7poOKJEEPHAl35N9_9CA-67" value="" style="rounded=0;whiteSpace=wrap;html=1;fillColor=#F5F5F5;" parent="1" vertex="1">
          <mxGeometry x="140" y="30" width="720" height="100" as="geometry" />
        </mxCell>
        <mxCell id="7poOKJEEPHAl35N9_9CA-68" value="功能" style="text;html=1;strokeColor=none;fillColor=none;align=center;verticalAlign=middle;whiteSpace=wrap;rounded=0;" parent="1" vertex="1">
          <mxGeometry x="60" y="65" width="60" height="30" as="geometry" />
        </mxCell>
        <mxCell id="7poOKJEEPHAl35N9_9CA-69" value="首页" style="rounded=0;whiteSpace=wrap;html=1;" parent="1" vertex="1">
          <mxGeometry x="160" y="50" width="120" height="60" as="geometry" />
        </mxCell>
        <mxCell id="7poOKJEEPHAl35N9_9CA-70" value="应用" style="text;html=1;strokeColor=none;fillColor=none;align=center;verticalAlign=middle;whiteSpace=wrap;rounded=0;" parent="1" vertex="1">
          <mxGeometry x="60" y="245" width="60" height="30" as="geometry" />
        </mxCell>
        <mxCell id="7poOKJEEPHAl35N9_9CA-71" value="崩溃分析" style="rounded=0;whiteSpace=wrap;html=1;" parent="1" vertex="1">
          <mxGeometry x="300" y="50" width="120" height="60" as="geometry" />
        </mxCell>
        <mxCell id="7poOKJEEPHAl35N9_9CA-72" value="应用性能分析" style="rounded=0;whiteSpace=wrap;html=1;" parent="1" vertex="1">
          <mxGeometry x="440" y="50" width="120" height="60" as="geometry" />
        </mxCell>
        <mxCell id="7poOKJEEPHAl35N9_9CA-73" value="资源分析" style="rounded=0;whiteSpace=wrap;html=1;" parent="1" vertex="1">
          <mxGeometry x="580" y="50" width="120" height="60" as="geometry" />
        </mxCell>
        <mxCell id="7poOKJEEPHAl35N9_9CA-74" value="设备资源分析" style="rounded=0;whiteSpace=wrap;html=1;fillColor=#fff2cc;strokeColor=#d6b656;" parent="1" vertex="1">
          <mxGeometry x="160" y="311" width="120" height="60" as="geometry" />
        </mxCell>
        <mxCell id="7poOKJEEPHAl35N9_9CA-75" value="设备资监控" style="rounded=0;whiteSpace=wrap;html=1;" parent="1" vertex="1">
          <mxGeometry x="300" y="311" width="120" height="60" as="geometry" />
        </mxCell>
        <mxCell id="7poOKJEEPHAl35N9_9CA-76" value="监控设备管理" style="rounded=0;whiteSpace=wrap;html=1;" parent="1" vertex="1">
          <mxGeometry x="440" y="311" width="120" height="60" as="geometry" />
        </mxCell>
        <mxCell id="7poOKJEEPHAl35N9_9CA-77" value="单设备分析" style="rounded=0;whiteSpace=wrap;html=1;" parent="1" vertex="1">
          <mxGeometry x="160" y="230" width="120" height="60" as="geometry" />
        </mxCell>
        <mxCell id="7poOKJEEPHAl35N9_9CA-78" value="离线包分析" style="rounded=0;whiteSpace=wrap;html=1;" parent="1" vertex="1">
          <mxGeometry x="300" y="230" width="120" height="60" as="geometry" />
        </mxCell>
        <mxCell id="7poOKJEEPHAl35N9_9CA-79" value="智能分析" style="rounded=0;whiteSpace=wrap;html=1;" parent="1" vertex="1">
          <mxGeometry x="440" y="230" width="120" height="60" as="geometry" />
        </mxCell>
        <mxCell id="7poOKJEEPHAl35N9_9CA-80" value="单点行为分析" style="rounded=0;whiteSpace=wrap;html=1;fillColor=#dae8fc;strokeColor=#6c8ebf;" parent="1" vertex="1">
          <mxGeometry x="580" y="230" width="120" height="60" as="geometry" />
        </mxCell>
        <mxCell id="7poOKJEEPHAl35N9_9CA-81" value="N" style="rounded=0;whiteSpace=wrap;html=1;" parent="1" vertex="1">
          <mxGeometry x="900" y="65" width="50" height="25" as="geometry" />
        </mxCell>
        <mxCell id="7poOKJEEPHAl35N9_9CA-82" value="P" style="rounded=0;whiteSpace=wrap;html=1;fillColor=#fff2cc;strokeColor=#d6b656;" parent="1" vertex="1">
          <mxGeometry x="900" y="95" width="50" height="25" as="geometry" />
        </mxCell>
        <mxCell id="7poOKJEEPHAl35N9_9CA-83" value="L" style="rounded=0;whiteSpace=wrap;html=1;fillColor=#dae8fc;strokeColor=#6c8ebf;" parent="1" vertex="1">
          <mxGeometry x="900" y="125" width="50" height="25" as="geometry" />
        </mxCell>
        <mxCell id="7poOKJEEPHAl35N9_9CA-84" value="F" style="rounded=0;whiteSpace=wrap;html=1;fillColor=#d5e8d4;strokeColor=#82b366;" parent="1" vertex="1">
          <mxGeometry x="900" y="160" width="50" height="25" as="geometry" />
        </mxCell>
        <mxCell id="7poOKJEEPHAl35N9_9CA-85" value="崩溃白名单管理" style="rounded=0;whiteSpace=wrap;html=1;" parent="1" vertex="1">
          <mxGeometry x="720" y="150" width="120" height="60" as="geometry" />
        </mxCell>
        <mxCell id="7poOKJEEPHAl35N9_9CA-86" value="Python" style="rounded=0;whiteSpace=wrap;html=1;" parent="1" vertex="1">
          <mxGeometry x="440" y="711" width="120" height="60" as="geometry" />
        </mxCell>
        <mxCell id="7poOKJEEPHAl35N9_9CA-87" value="TypeScript" style="rounded=0;whiteSpace=wrap;html=1;" parent="1" vertex="1">
          <mxGeometry x="580" y="711" width="120" height="60" as="geometry" />
        </mxCell>
        <mxCell id="7poOKJEEPHAl35N9_9CA-88" value="LLM" style="rounded=0;whiteSpace=wrap;html=1;" parent="1" vertex="1">
          <mxGeometry x="720" y="411" width="120" height="60" as="geometry" />
        </mxCell>
        <mxCell id="7poOKJEEPHAl35N9_9CA-89" value="清洁报告分析" style="rounded=0;whiteSpace=wrap;html=1;fillColor=#dae8fc;strokeColor=#6c8ebf;" parent="1" vertex="1">
          <mxGeometry x="720" y="230" width="120" height="60" as="geometry" />
        </mxCell>
        <mxCell id="7poOKJEEPHAl35N9_9CA-90" value="Kubernetes" style="rounded=0;whiteSpace=wrap;html=1;" parent="1" vertex="1">
          <mxGeometry x="440" y="616" width="120" height="60" as="geometry" />
        </mxCell>
      </root>
    </mxGraphModel>
  </diagram>
</mxfile>
